<?xml version="1.0" encoding="UTF-8" standalone="no"?>
<!-- Created with Inkscape (http://www.inkscape.org/) -->

<svg
   version="1.1"
   id="svg1"
   width="42.666668"
   height="42.666668"
   viewBox="0 0 42.666668 42.666668"
   sodipodi:docname=".svg"
   inkscape:version="1.4.3 (fcd0343856, 2026-01-01)"
   xmlns:inkscape="http://www.inkscape.org/namespaces/inkscape"
   xmlns:sodipodi="http://sodipodi.sourceforge.net/DTD/sodipodi-0.dtd"
   xmlns="http://www.w3.org/2000/svg"
   xmlns:svg="http://www.w3.org/2000/svg">
  <defs
     id="defs1" />
  <sodipodi:namedview
     id="namedview1"
     pagecolor="#ffffff"
     bordercolor="#000000"
     borderopacity="0.25"
     inkscape:showpageshadow="2"
     inkscape:pageopacity="0.0"
     inkscape:pagecheckerboard="0"
     inkscape:deskcolor="#d1d1d1"
     inkscape:zoom="2.352539"
     inkscape:cx="26.992114"
     inkscape:cy="63.123289"
     inkscape:window-width="1852"
     inkscape:window-height="1011"
     inkscape:window-x="0"
     inkscape:window-y="0"
     inkscape:window-maximized="1"
     inkscape:current-layer="g1" />
  <g
     inkscape:groupmode="layer"
     inkscape:label="Image"
     id="g1">
    <path
       style="fill:#aa0000;stroke-width:0.150286"
       d="m 23.259531,36.829068 c -0.349758,-0.057 -0.683254,-0.150966 -0.741102,-0.208814 -0.11145,-0.11145 4.104056,-12.974717 4.289614,-13.089398 0.142258,-0.08792 3.393237,7.236843 4.030536,9.08118 0.883778,2.557642 0.642676,3.673718 -0.89208,4.129491 -0.81329,0.241521 -5.375638,0.301248 -6.686968,0.08754 z"
       id="path10" />
    <path
       style="fill:#aa0000;stroke-width:0.150286"
       d="m 14.797826,18.981434 c -1.308397,-2.054917 -3.742062,-7.342317 -4.039947,-8.777221 -0.304903,-1.4687087 0.130907,-1.9676905 1.969196,-2.2546375 1.30693,-0.2040047 5.102739,-0.099806 5.755029,0.1579805 0.568298,0.2245927 0.6742,0.3980955 0.677044,1.1092218 0.0049,1.2303632 -3.162946,10.0297152 -3.738979,10.3857232 -0.09323,0.05762 -0.359238,-0.207844 -0.622343,-0.621067 z"
       id="path11" />
    <path
       style="fill:#aa0000;stroke-width:0.150286"
       d="M 2.5548599,36.875407 C 2.3895455,36.838519 2.1040758,36.776358 1.9204829,36.737272 1.276207,36.600107 1.2371983,36.19785 1.7214956,34.68532 1.9675134,33.916971 2.255664,32.850583 2.3618303,32.315567 c 0.1923042,-0.969098 0.1956661,-0.973731 0.8945389,-1.232618 1.1347533,-0.420352 3.1490883,-0.614186 5.7063413,-0.549105 2.1258015,0.0541 2.4207885,0.09375 2.7936095,0.375448 0.520395,0.39321 0.534624,1.079385 0.04865,2.346315 -0.839339,2.188162 -2.1996748,3.069359 -5.2586361,3.406433 -1.764118,0.194393 -3.6296134,0.294114 -3.991477,0.213367 z"
       id="path12" />
    <path
       style="fill:#ff0000;stroke-width:0.150286"
       d="m 21.388631,32.799893 c -0.613122,-0.660031 -1.09061,-1.598992 -2.158998,-4.245576 -1.698885,-4.208431 -2.794206,-6.011435 -3.651936,-6.011435 -0.667919,0 -1.255984,1.00782 -1.830542,3.13716 -0.576925,2.138112 -1.243597,2.841427 -3.011132,3.176632 C 9.0284643,29.180507 5.5368868,28.961937 4.3243598,28.455312 3.8117418,28.241126 3.7970466,28.212804 3.8809411,27.600728 3.9286647,27.252545 4.2084733,26.158072 4.502738,25.168563 5.3135517,22.442079 9.5996918,9.6182963 9.7001604,9.6182963 c 0.048407,0 0.5533976,1.1327797 1.1222006,2.5172887 1.547365,3.766401 2.497208,5.849109 3.238945,7.101996 0.366691,0.619385 0.70239,1.256399 0.745998,1.415585 0.1238,0.45191 0.790255,0.60217 1.395973,0.314737 0.568324,-0.269687 0.85417,-0.757452 0.85417,-1.457545 0,-0.254936 0.199372,-1.04639 0.443049,-1.758787 0.243677,-0.712397 0.875735,-2.984088 1.404575,-5.048203 0.77992,-3.0441182 0.99137,-3.6969626 1.11954,-3.4565755 0.567599,1.0645465 4.031638,8.7500175 4.454739,9.8834855 0.897434,2.404182 0.962498,3.137467 0.569502,6.418321 -0.281213,2.34766 -1.671257,6.480341 -2.463245,7.323373 -0.421902,0.449094 -0.730083,0.430536 -1.196976,-0.07208 z"
       id="path13" />
    <path
       style="fill:#ff0000;stroke-width:0.0375715"
       d="m 32.579485,33.10068 c -0.570147,-0.178024 -1.225402,-1.281954 -2.352899,-3.964005 -1.679479,-3.995091 -2.32977,-6.013489 -2.32977,-7.231235 0,-1.230577 0.604832,-1.785599 2.193079,-2.012472 0.896033,-0.127994 3.959012,-0.159483 5.039429,-0.05181 0.414616,0.04132 0.848981,0.14642 1.068962,0.258645 0.201594,0.102846 0.429032,0.376329 0.502723,0.604503 0.130277,0.403376 0.06523,1.217624 -0.183613,2.298601 -0.272984,1.185825 -1.463291,5.369534 -1.958907,6.885195 -0.806966,2.467813 -1.380813,3.399356 -1.979004,3.212576 z"
       id="path14" />
    <path
       style="fill:#ff0000;stroke-width:0.0375715"
       d="m 13.084767,37.046915 c -0.620491,-0.11382 -0.945961,-0.378837 -1.04375,-0.849881 -0.06134,-0.295468 0.0016,-0.635386 0.249768,-1.349496 0.439846,-1.265533 0.704196,-2.212974 0.752336,-2.696402 0.02685,-0.269592 0.06627,-0.365673 0.150029,-0.365673 0.0326,0 0.181019,0.122577 0.329815,0.272394 0.803101,0.808609 2.008364,3.038353 2.11006,3.903625 0.01873,0.159384 0.009,0.240951 -0.04142,0.347208 -0.133309,0.280928 -0.544272,0.523997 -1.122319,0.66381 -0.344917,0.08343 -1.110946,0.124598 -1.384518,0.07442 z"
       id="path16" />
    <path
       style="fill:#ff0000;stroke-width:0.0375715"
       d="m 6.4998643,30.018368 c -0.7403035,-0.05751 -1.2210728,-0.158215 -1.2210728,-0.255767 0,-0.143556 1.2117064,-0.373315 2.4045741,-0.455945 1.3758589,-0.09531 3.0104624,0.01679 3.7997424,0.260572 0.536184,0.16561 0.419262,0.281899 -0.403628,0.401441 -0.319871,0.04647 -0.819215,0.06188 -2.2877561,0.07062 -1.0332154,0.0061 -2.0645522,-0.0033 -2.2918596,-0.02093 z"
       id="path17" />
    <path
       style="fill:#ff0000;stroke-width:0.106268"
       d="m 31.126937,17.963553 c -1.359082,-0.306704 -1.668944,-0.949312 -1.364007,-2.828743 0.408645,-2.51862 1.861607,-3.212707 7.060553,-3.372862 1.69866,-0.05233 2.082302,-0.0356 2.417363,0.105437 0.684608,0.288159 0.705315,0.504513 0.196839,2.056584 -0.244337,0.745811 -0.495482,1.692397 -0.558102,2.103524 -0.199619,1.310605 -0.289177,1.407367 -1.637882,1.769645 -0.711316,0.191068 -1.20917,0.232334 -3.18119,0.263679 -1.624982,0.02583 -2.519544,-0.0038 -2.933574,-0.09726 z"
       id="path18" />
    <path
       style="fill:#ff0000;stroke-width:0.106268"
       d="m 30.978734,17.849122 c -0.648433,-0.204016 -0.886124,-0.360762 -1.061581,-0.700059 -0.200287,-0.387311 -0.208074,-1.539335 -0.01592,-2.355696 0.510545,-2.169086 2.026883,-2.819627 6.815987,-2.924202 2.248535,-0.0491 2.351583,-0.0424 2.695877,0.175296 0.329324,0.20823 0.352854,0.258385 0.293973,0.626607 -0.0352,0.220143 -0.207475,0.866348 -0.382828,1.436012 -0.175354,0.569664 -0.39717,1.4269 -0.492925,1.904969 -0.09575,0.478069 -0.220169,0.957401 -0.276475,1.065181 -0.144852,0.277276 -0.932613,0.599362 -1.878649,0.76811 -1.064485,0.189877 -5.097475,0.192554 -5.697454,0.0038 z"
       id="path19" />
    <path
       style="fill:#ff0000;stroke-width:0.106268"
       d="m 33.662005,18.139238 c 0.07306,-0.02948 0.192611,-0.02948 0.265671,0 0.07306,0.02948 0.01328,0.0536 -0.132835,0.0536 -0.146119,0 -0.205895,-0.02412 -0.132836,-0.0536 z"
       id="path20" />
    <path
       style="fill:#ff0000;stroke-width:0.106268"
       d="m 30.978734,17.849122 c -0.998954,-0.314301 -1.222952,-0.632383 -1.220424,-1.733024 0.0034,-1.464417 0.483848,-2.644138 1.302618,-3.198293 1.076323,-0.72847 2.402203,-0.97392 5.656287,-1.047108 2.249868,-0.0506 2.351379,-0.04406 2.695877,0.173764 0.329324,0.20823 0.352854,0.258385 0.293973,0.626607 -0.0352,0.220143 -0.202707,0.85102 -0.372233,1.401949 -0.169526,0.550929 -0.390697,1.408165 -0.491492,1.904969 -0.100794,0.496804 -0.229976,0.991464 -0.28707,1.099244 -0.147066,0.277628 -0.934969,0.599527 -1.880082,0.76811 -1.064485,0.189877 -5.097475,0.192554 -5.697454,0.0038 z"
       id="path21" />
    <path
       style="fill:#ff0000;stroke-width:0.106268"
       d="m 31.212434,11.632293 c -0.883415,-0.187811 -0.753286,-0.525071 0.33694,-0.873258 1.023723,-0.326948 3.455028,-0.391317 5.689924,-0.150641 2.124783,0.228817 2.361493,0.304866 1.44178,0.463208 -2.572961,0.442973 -6.600239,0.745311 -7.468644,0.560691 z"
       id="path22" />
    <path
       style="fill:#ff0000;stroke-width:0.106268"
       d=""
       id="path23" />
    <path
       style="fill:#ff0000;stroke-width:0.106268"
       d="m 30.978734,17.849122 c -1.011852,-0.318359 -1.222707,-0.626857 -1.220822,-1.786158 0.0031,-1.87902 0.709844,-3.041204 2.205529,-3.626586 0.848388,-0.332042 2.359215,-0.511825 4.753774,-0.565681 2.225762,-0.05006 2.354466,-0.04209 2.683271,0.166098 0.194146,0.122929 0.345372,0.308179 0.345372,0.423078 0,0.112419 -0.169412,0.787358 -0.376471,1.499865 -0.207059,0.712507 -0.451571,1.661331 -0.54336,2.108497 -0.09179,0.447167 -0.213392,0.901215 -0.270227,1.008995 -0.146339,0.277512 -0.934196,0.599473 -1.879612,0.76811 -1.064485,0.189877 -5.097475,0.192554 -5.697454,0.0038 z"
       id="path24" />
    <path
       style="fill:#ff0000;stroke-width:0.00939287"
       d="m 32.635518,19.145661 c -0.09041,-0.0012 -0.32922,-0.0067 -0.530697,-0.01225 -1.405641,-0.03866 -2.248985,-0.138804 -2.340119,-0.277891 -0.0148,-0.02259 -0.01464,-0.02528 0.003,-0.04919 0.103866,-0.140643 1.013543,-0.317202 2.064706,-0.400736 0.919649,-0.07308 2.037356,-0.08017 2.982236,-0.0189 1.128035,0.07315 2.148664,0.252527 2.312993,0.406523 0.03213,0.03011 0.0327,0.0528 0.002,0.08123 -0.207218,0.192044 -2.05366,0.303472 -4.494158,0.271212 z"
       id="path25" />
    <path
       style="fill:none;stroke-width:0.0375715"
       d="M 13.619658,7.3790032 C 12.699296,7.3191857 12.182601,7.2483357 12.007137,7.1578919 l -0.09088,-0.046843 0.09883,-0.064753 c 0.396867,-0.2600374 2.174872,-0.4582906 3.783717,-0.4218964 1.169197,0.026449 1.796647,0.1035501 2.392338,0.2939721 0.516484,0.1651024 0.356953,0.279793 -0.549961,0.3953785 -0.30858,0.039328 -0.920505,0.058619 -2.124163,0.066963 -0.929894,0.00645 -1.783706,0.00568 -1.897359,-0.00171 z"
       id="path26" />
    <path
       style="fill:none;stroke-width:0.0375715"
       d="m 25.312727,26.252552 c -0.198074,-0.210841 -0.243403,-0.599113 -0.154537,-1.32373 0.05584,-0.455361 0.137956,-0.65435 0.43063,-1.043582 0.365015,-0.485441 0.906228,-0.8915 1.188229,-0.8915 0.150364,0 0.255755,0.12034 0.255005,0.291178 l -6.18e-4,0.140893 -0.08392,-0.146638 c -0.04615,-0.08065 -0.100734,-0.14549 -0.121286,-0.144086 -0.02055,0.0014 -0.185303,0.430895 -0.366111,0.954425 -0.645351,1.868612 -0.724017,2.079687 -0.80634,2.163553 -0.105998,0.107983 -0.239316,0.107783 -0.341055,-5.13e-4 z"
       id="path27" />
    <path
       style="fill:none;stroke-width:0.0375715"
       d="m 25.312727,26.252552 c -0.198074,-0.210841 -0.243403,-0.599113 -0.154537,-1.32373 0.05584,-0.455361 0.137956,-0.65435 0.43063,-1.043582 0.365015,-0.485441 0.906228,-0.8915 1.188229,-0.8915 0.150364,0 0.255755,0.12034 0.255005,0.291178 l -6.18e-4,0.140893 -0.08392,-0.146638 c -0.04615,-0.08065 -0.100734,-0.14549 -0.121286,-0.144086 -0.02055,0.0014 -0.185303,0.430895 -0.366111,0.954425 -0.645351,1.868612 -0.724017,2.079687 -0.80634,2.163553 -0.105998,0.107983 -0.239316,0.107783 -0.341055,-5.13e-4 z"
       id="path28" />
    <path
       style="fill:none;stroke-width:0.0375715"
       d="m 25.206378,24.271169 c 0.01136,-0.07232 0.0399,-0.427375 0.06342,-0.789 0.0497,-0.764331 0.02318,-1.414574 -0.08325,-2.041215 -0.04161,-0.244966 -0.06875,-0.452293 -0.06031,-0.460725 0.02282,-0.02282 0.16981,0.695509 0.239035,1.168152 0.03674,0.250828 0.06252,0.693897 0.06558,1.127145 l 0.005,0.713857 -0.125086,0.206644 c -0.120586,0.199209 -0.124342,0.201912 -0.104421,0.07514 z"
       id="path29" />
    <path
       style="fill:none;stroke-width:0.0375715"
       d="m 25.312727,26.252552 c -0.198074,-0.210841 -0.243403,-0.599113 -0.154537,-1.32373 0.05584,-0.455361 0.137956,-0.65435 0.43063,-1.043582 0.365015,-0.485441 0.906228,-0.8915 1.188229,-0.8915 0.150364,0 0.255755,0.12034 0.255005,0.291178 l -6.18e-4,0.140893 -0.08392,-0.146638 c -0.04615,-0.08065 -0.100734,-0.14549 -0.121286,-0.144086 -0.02055,0.0014 -0.185303,0.430895 -0.366111,0.954425 -0.645351,1.868612 -0.724017,2.079687 -0.80634,2.163553 -0.105998,0.107983 -0.239316,0.107783 -0.341055,-5.13e-4 z"
       id="path30" />
    <path
       style="fill:none;stroke-width:0.0375715"
       d="m 25.312727,26.252552 c -0.198074,-0.210841 -0.243403,-0.599113 -0.154537,-1.32373 0.05584,-0.455361 0.137956,-0.65435 0.43063,-1.043582 0.365015,-0.485441 0.906228,-0.8915 1.188229,-0.8915 0.150364,0 0.255755,0.12034 0.255005,0.291178 l -6.18e-4,0.140893 -0.08392,-0.146638 c -0.04615,-0.08065 -0.100734,-0.14549 -0.121286,-0.144086 -0.02055,0.0014 -0.185303,0.430895 -0.366111,0.954425 -0.645351,1.868612 -0.724017,2.079687 -0.80634,2.163553 -0.105998,0.107983 -0.239316,0.107783 -0.341055,-5.13e-4 z"
       id="path31" />
    <path
       style="fill:none;stroke-width:0.0375715"
       d="m 25.312727,26.252552 c -0.198074,-0.210841 -0.243403,-0.599113 -0.154537,-1.32373 0.05584,-0.455361 0.137956,-0.65435 0.43063,-1.043582 0.365015,-0.485441 0.906228,-0.8915 1.188229,-0.8915 0.150364,0 0.255755,0.12034 0.255005,0.291178 l -6.18e-4,0.140893 -0.08392,-0.146638 c -0.04615,-0.08065 -0.100734,-0.14549 -0.121286,-0.144086 -0.02055,0.0014 -0.185303,0.430895 -0.366111,0.954425 -0.645351,1.868612 -0.724017,2.079687 -0.80634,2.163553 -0.105998,0.107983 -0.239316,0.107783 -0.341055,-5.13e-4 z"
       id="path32" />
    <path
       style="fill:none;stroke-width:0.0375715"
       d="m 25.312727,26.252552 c -0.198074,-0.210841 -0.243403,-0.599113 -0.154537,-1.32373 0.05584,-0.455361 0.137956,-0.65435 0.43063,-1.043582 0.365015,-0.485441 0.906228,-0.8915 1.188229,-0.8915 0.150364,0 0.255755,0.12034 0.255005,0.291178 l -6.18e-4,0.140893 -0.08392,-0.146638 c -0.04615,-0.08065 -0.100734,-0.14549 -0.121286,-0.144086 -0.02055,0.0014 -0.185303,0.430895 -0.366111,0.954425 -0.645351,1.868612 -0.724017,2.079687 -0.80634,2.163553 -0.105998,0.107983 -0.239316,0.107783 -0.341055,-5.13e-4 z"
       id="path33" />
    <path
       style="fill:none;stroke-width:0.0375715"
       d="m 25.312727,26.252552 c -0.198074,-0.210841 -0.243403,-0.599113 -0.154537,-1.32373 0.05584,-0.455361 0.137956,-0.65435 0.43063,-1.043582 0.365015,-0.485441 0.906228,-0.8915 1.188229,-0.8915 0.150364,0 0.255755,0.12034 0.255005,0.291178 l -6.18e-4,0.140893 -0.08392,-0.146638 c -0.04615,-0.08065 -0.100734,-0.14549 -0.121286,-0.144086 -0.02055,0.0014 -0.185303,0.430895 -0.366111,0.954425 -0.645351,1.868612 -0.724017,2.079687 -0.80634,2.163553 -0.105998,0.107983 -0.239316,0.107783 -0.341055,-5.13e-4 z"
       id="path34" />
    <path
       style="fill:none;stroke-width:0.0375715"
       d="m 25.312727,26.252552 c -0.198074,-0.210841 -0.243403,-0.599113 -0.154537,-1.32373 0.05584,-0.455361 0.137956,-0.65435 0.43063,-1.043582 0.365015,-0.485441 0.906228,-0.8915 1.188229,-0.8915 0.150364,0 0.255755,0.12034 0.255005,0.291178 l -6.18e-4,0.140893 -0.08392,-0.146638 c -0.04615,-0.08065 -0.100734,-0.14549 -0.121286,-0.144086 -0.02055,0.0014 -0.185303,0.430895 -0.366111,0.954425 -0.645351,1.868612 -0.724017,2.079687 -0.80634,2.163553 -0.105998,0.107983 -0.239316,0.107783 -0.341055,-5.13e-4 z"
       id="path35" />
  </g>
</svg>
